<svg width="200" height="44" viewBox="0 0 200 44" fill="none" xmlns="http://www.w3.org/2000/svg">
<path d="M11.88 29V15H14.48V26.8H21.8V29H11.88ZM26.2527 20.82H33.2127V22.96H26.2527V20.82ZM26.4527 26.82H34.3527V29H23.8527V15H34.0727V17.18H26.4527V26.82ZM40.5348 29V23.46L41.1148 25.06L35.0348 15H37.8148L42.6948 23.1H41.1348L46.0548 15H48.6148L42.5348 25.06L43.1348 23.46V29H40.5348ZM52.5417 20.82H59.5017V22.96H52.5417V20.82ZM52.7417 26.82H60.6417V29H50.1417V15H60.3617V17.18H52.7417V26.82ZM64.2955 29.14C63.8421 29.14 63.4555 28.9867 63.1355 28.68C62.8155 28.36 62.6555 27.96 62.6555 27.48C62.6555 26.9733 62.8155 26.5733 63.1355 26.28C63.4555 25.9733 63.8421 25.82 64.2955 25.82C64.7488 25.82 65.1355 25.9733 65.4555 26.28C65.7755 26.5733 65.9355 26.9733 65.9355 27.48C65.9355 27.96 65.7755 28.36 65.4555 28.68C65.1355 28.9867 64.7488 29.14 64.2955 29.14ZM68.6183 29V15H74.3783C75.6183 15 76.6783 15.2 77.5583 15.6C78.4516 16 79.1383 16.5733 79.6183 17.32C80.0983 18.0667 80.3383 18.9533 80.3383 19.98C80.3383 21.0067 80.0983 21.8933 79.6183 22.64C79.1383 23.3867 78.4516 23.96 77.5583 24.36C76.6783 24.76 75.6183 24.96 74.3783 24.96H70.0583L71.2183 23.74V29H68.6183ZM71.2183 24.02L70.0583 22.76H74.2583C75.4049 22.76 76.2649 22.52 76.8383 22.04C77.4249 21.5467 77.7183 20.86 77.7183 19.98C77.7183 19.0867 77.4249 18.4 76.8383 17.92C76.2649 17.44 75.4049 17.2 74.2583 17.2H70.0583L71.2183 15.92V24.02ZM89.69 29.2C88.5967 29.2 87.59 29.02 86.67 28.66C85.75 28.3 84.95 27.8 84.27 27.16C83.59 26.5067 83.0633 25.7467 82.69 24.88C82.3167 24 82.13 23.04 82.13 22C82.13 20.96 82.3167 20.0067 82.69 19.14C83.0633 18.26 83.59 17.5 84.27 16.86C84.95 16.2067 85.75 15.7 86.67 15.34C87.59 14.98 88.59 14.8 89.67 14.8C90.7633 14.8 91.7633 14.98 92.67 15.34C93.59 15.7 94.39 16.2067 95.07 16.86C95.75 17.5 96.2767 18.26 96.65 19.14C97.0233 20.0067 97.21 20.96 97.21 22C97.21 23.04 97.0233 24 96.65 24.88C96.2767 25.76 95.75 26.52 95.07 27.16C94.39 27.8 93.59 28.3 92.67 28.66C91.7633 29.02 90.77 29.2 89.69 29.2ZM89.67 26.92C90.3767 26.92 91.03 26.8 91.63 26.56C92.23 26.32 92.75 25.98 93.19 25.54C93.63 25.0867 93.97 24.5667 94.21 23.98C94.4633 23.38 94.59 22.72 94.59 22C94.59 21.28 94.4633 20.6267 94.21 20.04C93.97 19.44 93.63 18.92 93.19 18.48C92.75 18.0267 92.23 17.68 91.63 17.44C91.03 17.2 90.3767 17.08 89.67 17.08C88.9633 17.08 88.31 17.2 87.71 17.44C87.1233 17.68 86.6033 18.0267 86.15 18.48C85.71 18.92 85.3633 19.44 85.11 20.04C84.87 20.6267 84.75 21.28 84.75 22C84.75 22.7067 84.87 23.36 85.11 23.96C85.3633 24.56 85.71 25.0867 86.15 25.54C86.59 25.98 87.11 26.32 87.71 26.56C88.31 26.8 88.9633 26.92 89.67 26.92ZM99.9659 29V15H105.726C106.966 15 108.026 15.2 108.906 15.6C109.799 16 110.486 16.5733 110.966 17.32C111.446 18.0667 111.686 18.9533 111.686 19.98C111.686 21.0067 111.446 21.8933 110.966 22.64C110.486 23.3733 109.799 23.94 108.906 24.34C108.026 24.7267 106.966 24.92 105.726 24.92H101.406L102.566 23.74V29H99.9659ZM109.126 29L105.586 23.92H108.366L111.926 29H109.126ZM102.566 24.02L101.406 22.78H105.606C106.753 22.78 107.613 22.5333 108.186 22.04C108.773 21.5467 109.066 20.86 109.066 19.98C109.066 19.0867 108.773 18.4 108.186 17.92C107.613 17.44 106.753 17.2 105.606 17.2H101.406L102.566 15.92V24.02ZM117.24 29V17.2H112.6V15H124.48V17.2H119.84V29H117.24ZM128.811 21.44H135.791V23.64H128.811V21.44ZM129.031 29H126.431V15H136.651V17.18H129.031V29ZM145.569 29.2C144.476 29.2 143.469 29.02 142.549 28.66C141.629 28.3 140.829 27.8 140.149 27.16C139.469 26.5067 138.942 25.7467 138.569 24.88C138.196 24 138.009 23.04 138.009 22C138.009 20.96 138.196 20.0067 138.569 19.14C138.942 18.26 139.469 17.5 140.149 16.86C140.829 16.2067 141.629 15.7 142.549 15.34C143.469 14.98 144.469 14.8 145.549 14.8C146.642 14.8 147.642 14.98 148.549 15.34C149.469 15.7 150.269 16.2067 150.949 16.86C151.629 17.5 152.156 18.26 152.529 19.14C152.902 20.0067 153.089 20.96 153.089 22C153.089 23.04 152.902 24 152.529 24.88C152.156 25.76 151.629 26.52 150.949 27.16C150.269 27.8 149.469 28.3 148.549 28.66C147.642 29.02 146.649 29.2 145.569 29.2ZM145.549 26.92C146.256 26.92 146.909 26.8 147.509 26.56C148.109 26.32 148.629 25.98 149.069 25.54C149.509 25.0867 149.849 24.5667 150.089 23.98C150.342 23.38 150.469 22.72 150.469 22C150.469 21.28 150.342 20.6267 150.089 20.04C149.849 19.44 149.509 18.92 149.069 18.48C148.629 18.0267 148.109 17.68 147.509 17.44C146.909 17.2 146.256 17.08 145.549 17.08C144.842 17.08 144.189 17.2 143.589 17.44C143.002 17.68 142.482 18.0267 142.029 18.48C141.589 18.92 141.242 19.44 140.989 20.04C140.749 20.6267 140.629 21.28 140.629 22C140.629 22.7067 140.749 23.36 140.989 23.96C141.242 24.56 141.589 25.0867 142.029 25.54C142.469 25.98 142.989 26.32 143.589 26.56C144.189 26.8 144.842 26.92 145.549 26.92ZM155.845 29V15H158.445V26.8H165.765V29H155.845ZM167.818 29V15H170.418V29H167.818ZM180.764 29.2C179.671 29.2 178.664 29.02 177.744 28.66C176.824 28.3 176.024 27.8 175.344 27.16C174.664 26.5067 174.138 25.7467 173.764 24.88C173.391 24 173.204 23.04 173.204 22C173.204 20.96 173.391 20.0067 173.764 19.14C174.138 18.26 174.664 17.5 175.344 16.86C176.024 16.2067 176.824 15.7 177.744 15.34C178.664 14.98 179.664 14.8 180.744 14.8C181.838 14.8 182.838 14.98 183.744 15.34C184.664 15.7 185.464 16.2067 186.144 16.86C186.824 17.5 187.351 18.26 187.724 19.14C188.098 20.0067 188.284 20.96 188.284 22C188.284 23.04 188.098 24 187.724 24.88C187.351 25.76 186.824 26.52 186.144 27.16C185.464 27.8 184.664 28.3 183.744 28.66C182.838 29.02 181.844 29.2 180.764 29.2ZM180.744 26.92C181.451 26.92 182.104 26.8 182.704 26.56C183.304 26.32 183.824 25.98 184.264 25.54C184.704 25.0867 185.044 24.5667 185.284 23.98C185.538 23.38 185.664 22.72 185.664 22C185.664 21.28 185.538 20.6267 185.284 20.04C185.044 19.44 184.704 18.92 184.264 18.48C183.824 18.0267 183.304 17.68 182.704 17.44C182.104 17.2 181.451 17.08 180.744 17.08C180.038 17.08 179.384 17.2 178.784 17.44C178.198 17.68 177.678 18.0267 177.224 18.48C176.784 18.92 176.438 19.44 176.184 20.04C175.944 20.6267 175.824 21.28 175.824 22C175.824 22.7067 175.944 23.36 176.184 23.96C176.438 24.56 176.784 25.0867 177.224 25.54C177.664 25.98 178.184 26.32 178.784 26.56C179.384 26.8 180.038 26.92 180.744 26.92Z" fill="white"/>
</svg>
